<?xml version="1.0" encoding="utf-8"?>
<!-- Generator: Adobe Illustrator 25.4.1, SVG Export Plug-In . SVG Version: 6.00 Build 0)  -->
<svg version="1.1" id="Layer_1" xmlns="http://www.w3.org/2000/svg" xmlns:xlink="http://www.w3.org/1999/xlink" x="0px" y="0px"
	 viewBox="0 0 89 85" style="enable-background:new 0 0 89 85;" xml:space="preserve">
<symbol  id="Go_to_Web" viewBox="-32 -33.9 64 67.8">
	<polygon points="5.4,3.7 5.4,-30.4 14.2,-21.6 20.6,-33.9 25.2,-31.5 19.1,-19.7 30.9,-19.7 	"/>
	<path d="M31.5-3.6c0.1,0.3,0.1,0.6,0.2,1c0,0.2,0,0.4,0.1,0.5c0,0.3,0.1,0.6,0.1,0.9c0,0.2,0,0.5,0.1,0.7c0,0.3,0,0.5,0.1,0.8
		c0,0.5,0,1,0,1.6c0,0.5,0,1,0,1.5c0,0.3,0,0.6-0.1,0.9c0,0.2,0,0.3,0,0.5c0,0.4-0.1,0.8-0.1,1.2c0,0.1,0,0.1,0,0.2
		c-0.1,0.4-0.1,0.8-0.2,1.3c0,0,0,0.1,0,0.1c0,0,0,0,0,0C29,21.6,17.3,32.5,2.9,33.8c0,0,0,0-0.1,0c-0.4,0-0.9,0.1-1.3,0.1
		c-0.5,0-1,0-1.5,0s-1,0-1.5,0c-0.4,0-0.9-0.1-1.3-0.1c0,0,0,0-0.1,0C-17.3,32.5-29,21.6-31.5,7.6c0,0,0,0,0,0c0,0,0-0.1,0-0.1
		c-0.1-0.4-0.1-0.8-0.2-1.3c0-0.1,0-0.1,0-0.2c-0.1-0.4-0.1-0.8-0.1-1.2c0-0.2,0-0.3,0-0.5c0-0.3-0.1-0.6-0.1-0.9c0-0.5,0-1,0-1.5
		c0-0.5,0-1,0-1.5c0-0.3,0-0.7,0.1-1c0-0.1,0-0.3,0-0.4c0-0.4,0.1-0.8,0.1-1.2c0,0,0-0.1,0-0.1c0.1-0.4,0.1-0.9,0.2-1.3c0,0,0,0,0,0
		h0c2.4-13.1,12.7-23.4,25.8-25.8c0,0,0,0,0,0c0.1,0,0.2,0,0.3,0c0.3-0.1,0.6-0.1,0.9-0.1c0.2,0,0.4-0.1,0.6-0.1
		c0.3,0,0.6-0.1,0.8-0.1c0.3,0,0.6,0,0.8-0.1c0.2,0,0.4,0,0.7,0c0.5,0,1,0,1.5,0c0,0,0.1,0,0.1,0v0.3v7.2c0,0-0.1,0-0.1,0
		c-1.4,0-2.8,0.1-4.2,0.4c-1.1,3.2-2,7.5-2.6,12.7C-4.6-9.7-2.3-9.8,0-9.8c0,0,0.1,0,0.1,0v4.3c0,0-0.1,0-0.1,0
		c-2.6,0-5,0.1-7.2,0.2c-0.2,2.2-0.2,4.6-0.2,7.2c0,2.6,0.1,5,0.2,7.2C-5,9.2-2.6,9.3,0,9.3c2.5,0,4.9-0.1,7.2-0.2
		c0-0.1,0-0.3,0-0.4C7.9,8.5,8.5,8.1,9,7.6l2.6-2.4c0,1.2-0.1,2.3-0.2,3.5c5.2-0.6,9.5-1.6,12.7-2.6c0.2-1.4,0.4-2.8,0.4-4.2
		c0-1.4-0.1-2.8-0.4-4.2c-1-0.3-2.1-0.6-3.3-0.9l2.5-2.3c0,0,0,0,0,0l5.9-5.4c1,2.3,1.7,4.7,2.2,7.2c0,0,0,0,0,0
		C31.5-3.7,31.5-3.7,31.5-3.6z M-9.1,24.7c-0.9-3.4-1.6-7.4-2.1-11.7c-4.3-0.5-8.3-1.2-11.7-2.1C-20.3,17.2-15.3,22.2-9.1,24.7z
		 M-9.1-20.9c-6.3,2.5-11.3,7.5-13.8,13.8c3.4-0.9,7.4-1.6,11.7-2.1C-10.7-13.5-10-17.5-9.1-20.9z M-11.5-4.9
		c-5.2,0.6-9.5,1.6-12.7,2.6c-0.2,1.4-0.4,2.8-0.4,4.2c0,1.4,0.1,2.8,0.4,4.2c3.2,1.1,7.5,2,12.7,2.6c-0.1-2.2-0.2-4.5-0.2-6.8
		C-11.7-0.4-11.6-2.7-11.5-4.9z M0,13.6c-2.3,0-4.6-0.1-6.8-0.2c0.6,5.2,1.6,9.5,2.6,12.7c1.4,0.2,2.8,0.4,4.2,0.4
		c1.4,0,2.8-0.1,4.2-0.4c1.1-3.2,2-7.5,2.6-12.7C4.6,13.5,2.3,13.6,0,13.6z M11.1,13C10.7,17.3,10,21.3,9,24.7
		c6.3-2.5,11.3-7.5,13.8-13.8C19.4,11.9,15.4,12.6,11.1,13z"/>
</symbol>
<symbol  id="RSS" viewBox="-28 -28 56 56">
	<path id="circle_00000010309902514614183120000008736538886686462134_" d="M-13-20.5c0-4.1-3.4-7.5-7.5-7.5c-4.1,0-7.5,3.3-7.5,7.5
		c0,4.1,3.4,7.5,7.5,7.5C-16.3-13-13-16.4-13-20.5z"/>
	<path d="M8.8-27.6h-9.9C-1.2-20.5-4-13.9-9-9c-5,5-11.5,7.8-18.5,7.9v9.8C-7.6,8.5,8.5-7.7,8.8-27.6L8.8-27.6z"/>
	<path d="M28-27.6h-9.8C17.9-2.5-2.4,17.9-27.5,18.2V28C3,27.7,27.7,2.9,28-27.6L28-27.6z"/>
</symbol>
<use xlink:href="#Go_to_Web"  width="64" height="67.8" x="-32" y="-33.9" transform="matrix(1 0 0 -1.003 45 44)" style="overflow:visible;"/>
<use xlink:href="#RSS"  width="56" height="56" x="-28" y="-28" transform="matrix(1.0005 0 0 -1.0003 46.9997 40)" style="display:none;overflow:visible;"/>
</svg>
